<?xml version="1.0" encoding="utf-8"?>
<svg version="1.0" id="Layer_1" xmlns="http://www.w3.org/2000/svg" xmlns:xlink="http://www.w3.org/1999/xlink" x="0px" y="0px"
	 viewBox="0 0 335 122" enable-background="new 0 0 335 122" xml:space="preserve">
<g>
	<g>
		<g>
			<path fill="#006A8E" d="M39.7,24c-16,0-29,13-29,29s16.6,27.3,30.8,37.1C53.7,79,68.8,69,68.8,53S55.7,24,39.7,24z M39.6,68.6
				c-9.1,0-16.6-7.4-16.6-16.4s7.5-16.4,16.6-16.4S56,43.1,56,52.2S48.7,68.6,39.6,68.6z"/>
			<path fill="#006A8E" d="M61.7,11.8c2.9-4.6,9-5.9,13.4-3c4.6,2.9,5.9,9,3,13.4c-2.9,4.6-11,9.1-15.5,6.2S58.9,16.4,61.7,11.8z"/>
			<path fill="#006A8E" d="M38.5,7.8c0.8-4.9,5.5-8.1,10.3-7.4c5,0.8,8.1,5.5,7.4,10.4c-1,4.9-6.1,11.5-11,10.8
				C40.4,20.8,37.7,12.6,38.5,7.8z"/>
			<path fill="#006A8E" d="M16.7,14.9c-1.5-4.2,0.8-8.8,5-10.3s8.8,0.8,10.3,5s0.4,11.8-4,13.4C24,24.4,18.2,19.1,16.7,14.9z"/>
			<path fill="#006A8E" d="M0.6,26.4c-1.6-3.8,0.2-8,3.8-9.6c3.8-1.6,8,0.2,9.6,3.8c1.6,3.8,1,10.7-2.8,12.3
				C7.7,34.6,2.2,30.2,0.6,26.4z"/>
		</g>
		<path d="M250.3,45.3l-6.8,38.6h9.7l7.1-40L250.3,45.3z M289.1,45.3c0.4,1.3,0.6,2.4,0.6,3.7c0,1.6-0.2,3.3-1.1,5.5l-9.3,20.9
			l-3.7-31.2l-9.6,1.4l5.7,38.4H285l13-28c1.1-2.3,1.4-5.1,1.4-7.1c0-1.5-0.2-3.3-0.7-5L289.1,45.3z M128.9,49.7l0.4-5.8l-8.4,1.5
			L114,83.9h9.7l4.2-24.3c4.2-2.7,7.1-4.5,11.7-7.1l-0.7-8.8C135.6,45.1,131.5,47.5,128.9,49.7 M150.6,74.4c0-0.2,0-0.5,0.1-0.9
			l2.4-13.9c0.9-5.2,2.1-7.7,8.3-7.7c2,0,3.8,0.2,5.5,0.6l-3.3,18.1c-3,3-7.4,5.9-10.5,5.9C151.5,76.6,150.6,75.8,150.6,74.4
			 M143.3,60.1l-2,11.5c-0.2,1.5-0.4,2.8-0.4,4.2c0,5.3,2.3,9,9.1,9c5.2,0,9.5-2.1,12.8-5.2l0.1,4.4h8.2l6.6-37.7
			c-4-1.3-11.1-2.5-14.9-2.5C147.7,43.7,145.3,49.4,143.3,60.1 M184.9,57.7L182.5,71c-0.2,1.5-0.5,2.5-0.5,3.9
			c0,6.4,3.5,9.8,11.9,9.8c4.9,0,9.8-1.3,13.3-3l-0.9-7.9c-3.3,1.1-8.4,2.5-11.5,2.5c-2.3,0-3-1.1-3-2.5c0-0.4,0.1-0.9,0.1-1.4
			l2.3-13.3c0.9-5.5,2.9-7.1,8.4-7.1c2,0,5.1,0.5,7.4,1.1l2.2-7.7c-2.3-0.9-6.4-1.6-9.3-1.6C192,43.7,186.8,46.8,184.9,57.7
			 M314.1,57.7c0.7-3.7,2.8-6.4,7.3-6.4c2.5,0,4.2,1.3,4.2,3.1c0,2.5-1.8,4.2-6.2,5.7c-3.9,1.1-4.5,1.4-5.9,1.7L314.1,57.7z
			 M304.3,58.6l-2.1,12c-1.5,8.2,0.7,14.1,11.1,14.1c6.6,0,13.9-2.3,18.6-5.2l-2.1-7.4c-5.1,2.5-10.8,4.5-15.1,4.5
			c-3.6,0-3.5-2-3.1-4.2l0.4-1.8c1.8-0.5,2.8-0.7,7.6-2.2c10.8-3.3,15.4-7.4,15.4-14.3c0-6.4-5.1-10.3-12.6-10.3
			C310.4,43.7,306,49.4,304.3,58.6 M95.7,34.4L94,44.6h-6.2l-1.5,7.7h6.4l-4.2,22.9c-0.9,5.7,1.7,9.5,8,9.5c4.7,0,9-1.3,12.4-3.1
			l-2.1-6.6c-2.3,0.9-4.9,1.7-6.8,1.7c-1.5,0-1.8-0.7-1.6-2l3.9-22.4h9.8l1.5-7.7h-10.1l2-11.5L95.7,34.4z M225.2,34.4l-1.7,10.2
			h-6.2l-1.5,7.7h6.4l-4.1,22.9c-0.9,5.7,1.7,9.5,7.9,9.5c4.7,0,9-1.3,12.4-3.1l-2.1-6.6c-2.3,0.9-4.9,1.7-6.8,1.7
			c-1.5,0-1.8-0.7-1.6-2l3.9-22.4h9.8l1.5-7.7h-10.1l2-11.5L225.2,34.4z M253.2,28.3l-2,11.1l9.9-1.5l2-11L253.2,28.3z"/>
	</g>
</g>
<g>
	<path d="M266.9,118.7l1.6-1.3c1.3,1.6,3.3,2.3,5.4,2.3c3.7,0,6.5-2.3,7.1-6.1c0.1-0.4,0.7-4.2,0.8-4.6h-0.1c-1.8,2.8-4.6,4-7.1,4
		c-3.7,0-5.9-2-5.9-5.3c0-0.5,0.1-1,0.1-1.6c0.1-0.6,1.1-5.7,1.1-6.2c0.8-4.8,4.5-7.1,8.3-7.1c2.1,0,5.2,1.1,5.7,4.1h0.1l0.6-3.5
		h2.2l-3.6,20.2c-0.8,5.1-4.7,8-9.7,8C270.7,121.6,268.2,120.6,266.9,118.7z M282.5,104.7c0.7-4.2,0.8-4.5,0.8-4.9
		c0-3.5-2.4-4.9-5-4.9c-2.8,0-5.6,1.7-6.2,5.3c-1.1,6.4-1.1,6.8-1.1,7.1c0,2.3,1.5,4,4.5,4C278.4,111.3,281.8,109,282.5,104.7z"/>
	<path d="M292.5,93.4h2.1l-0.6,3.5h0.1c1.8-2.7,4.8-4,7.3-4c3.6,0,5.9,2.1,5.9,5.3c0,0.4-0.1,0.9-0.1,1.4c-0.1,0.6-1.1,6-1.2,6.7
		c-0.9,5.1-4.7,7.5-8.6,7.5c-2.4,0-4.9-1.5-5.4-4.1h-0.1l-2.1,11.3h-2.3L292.5,93.4z M303.7,106.6l1.2-6.7c0.1-0.4,0.1-0.8,0.1-1.1
		c0-2.5-1.8-3.9-4.7-3.9c-3,0-6.4,2.5-7.1,6.6l-0.7,4.1c-0.1,0.4-0.1,0.9-0.1,1.3c0,3.2,2.2,5.1,4.9,5.1S303.1,110.1,303.7,106.6z"
		/>
	<path d="M308.6,111.1l1.4-1.4c1.5,1.4,3.5,2.3,6,2.3c2.6,0,5.8-1.1,5.8-4.2c0-1.8-1.7-2.7-4.4-3.8c-3.9-1.6-5.7-2.7-5.7-5.3
		c0-3.3,2.6-5.7,7.3-5.7c2.4,0,4.8,0.6,6.4,2l-1.3,1.4c-1.2-0.8-3.2-1.6-5.3-1.6c-2.8,0-4.9,1.4-4.9,3.8c0,1.7,1.3,2.5,3.7,3.5
		c3.5,1.4,6.5,2.6,6.5,5.5c0,4.7-4.2,6.3-8.1,6.3C312.9,113.8,310.2,112.9,308.6,111.1z"/>
</g>
</svg>
